<!-- <svg class="w-5 h-5 text-white"
        viewBox="0 0 24 24"
        fill="none">
<path d="M12 4.75L19.25 9L12 13.25L4.75 9L12 4.75Z"
        stroke="currentColor"
        stroke-width="1.5"
        stroke-linecap="round"
        stroke-linejoin="round"></path>
<path d="M9.25 12L4.75 15L12 19.25L19.25 15L14.6722 12"
        stroke="currentColor"
        stroke-width="1.5"
        stroke-linecap="round"
        stroke-linejoin="round"></path>
</svg> -->

<!-- <svg xmlns="http://www.w3.org/2000/svg" class="h-5 w-5 text-white" viewBox="0 0 20 20" fill="currentColor">
  <path d="M8.433 7.418c.155-.103.346-.196.567-.267v1.698a2.305 2.305 0 01-.567-.267C8.07 8.34 8 8.114 8 8c0-.114.07-.34.433-.582zM11 12.849v-1.698c.22.071.412.164.567.267.364.243.433.468.433.582 0 .114-.07.34-.433.582a2.305 2.305 0 01-.567.267z" />
  <path fill-rule="evenodd" d="M10 18a8 8 0 100-16 8 8 0 000 16zm1-13a1 1 0 10-2 0v.092a4.535 4.535 0 00-1.676.662C6.602 6.234 6 7.009 6 8c0 .99.602 1.765 1.324 2.246.48.32 1.054.545 1.676.662v1.941c-.391-.127-.68-.317-.843-.504a1 1 0 10-1.51 1.31c.562.649 1.413 1.076 2.353 1.253V15a1 1 0 102 0v-.092a4.535 4.535 0 001.676-.662C13.398 13.766 14 12.991 14 12c0-.99-.602-1.765-1.324-2.246A4.535 4.535 0 0011 9.092V7.151c.391.127.68.317.843.504a1 1 0 101.511-1.31c-.563-.649-1.413-1.076-2.354-1.253V5z" clip-rule="evenodd" />
</svg> -->


<?xml version="1.0" encoding="iso-8859-1"?>
<!-- Uploaded to: SVG Repo, www.svgrepo.com, Generator: SVG Repo Mixer Tools -->
<svg class="h-6 w-6" version="1.1" id="Layer_1" xmlns="http://www.w3.org/2000/svg" xmlns:xlink="http://www.w3.org/1999/xlink" 
	 viewBox="0 0 505 505" xml:space="preserve">
<circle style="fill:#324A5E;" cx="252.5" cy="252.5" r="252.5"/>
<g>
	<polygon style="fill:#FFFFFF;" points="306.8,107.3 427.3,156 373.1,201.8 252.5,153.2 	"/>
	<polygon style="fill:#FFFFFF;" points="198.2,107.3 77.7,156 131.9,201.8 252.5,153.2 	"/>
</g>
<polygon style="fill:#324A5E;" points="373.1,201.9 252.5,244.5 131.9,201.9 252.5,153.2 "/>
<polygon style="fill:#FF7058;" points="252.5,435.5 131.9,392.9 131.9,201.9 252.5,244.5 "/>
<polygon style="fill:#F1543F;" points="252.5,435.5 373.1,392.9 373.1,201.9 252.5,244.5 "/>
<g>
	<polygon style="fill:#E6E9EE;" points="306.8,290.4 427.3,247.7 373.1,201.9 252.5,244.5 	"/>
	<polygon style="fill:#E6E9EE;" points="198.2,290.4 77.7,247.7 131.9,201.9 252.5,244.5 	"/>
</g>
</svg>
